<?xml version="1.0"?><svg fill="#ffffff" xmlns="http://www.w3.org/2000/svg"  viewBox="0 0 30 30" width="60px" height="60px">    <path d="M 28 6.9 c -1 0.4 -2 0.7 -3.1 0.8 c 1.1 -0.7 1.9 -1.7 2.3 -3 c -1 0.6 -2.2 1.1 -3.4 1.3 c -1 -1 -2.4 -1.7 -3.9 -1.7 c -2.9 0 -5.3 2.4 -5.3 5.3 c 0 0.4 0 0.8 0.1 1.2 c -4.4 -0.2 -8.4 -2.3 -11 -5.6 C 3.4 6.2 3.1 7.1 3.1 8.1 c 0 1.9 0.9 3.5 2.4 4.4 c -0.9 0 -1.7 -0.3 -2.4 -0.7 c 0 0 0 0 0 0.1 c 0 2.6 1.8 4.7 4.3 5.2 c -0.4 0.1 -0.9 0.2 -1.4 0.2 c -0.3 0 -0.7 0 -1 -0.1 c 0.7 2.1 2.6 3.7 5 3.7 c -1.8 1.4 -4.1 2.3 -6.6 2.3 c -0.4 0 -0.9 0 -1.3 -0.1 c 2.4 1.5 5.2 2.4 8.2 2.4 c 9.8 0 15.2 -8.1 15.2 -15.2 c 0 -0.2 0 -0.5 0 -0.7 C 26.4 8.9 27.3 8 28 6.9 z"/></svg>