<svg fill="#ffffff" xmlns="http://www.w3.org/2000/svg"  viewBox="0 0 30 30" width="60px" height="60px"><path d="M 10.9 3.5 C 7.2 3.5 4.2 6.5 4.2 10.3 L 4.2 19.7 C 4.2 23.4 7.2 26.4 10.9 26.4 L 20.1 26.4 C 23.8 26.4 26.8 23.4 26.8 19.7 L 26.8 10.3 C 26.8 6.5 23.8 3.5 20.1 3.5 Z M 10.9 5.6 L 20.1 5.6 C 22.7 5.6 24.8 7.7 24.8 10.3 L 24.8 19.7 C 24.8 22.3 22.7 24.3 20.1 24.3 L 10.9 24.3 C 8.3 24.3 6.2 22.3 6.2 19.7 L 6.2 10.3 C 6.2 7.7 8.3 5.6 10.9 5.6 Z M 21.6 7.9 C 21.1 7.9 20.6 8.3 20.6 8.8 C 20.6 9.3 21.1 9.8 21.6 9.8 C 22.1 9.8 22.5 9.3 22.5 8.8 C 22.5 8.3 22.1 7.9 21.6 7.9 Z M 15.5 8.7 C 12.1 8.7 9.3 11.5 9.3 15 C 9.3 18.4 12.1 21.2 15.5 21.2 C 18.9 21.2 21.7 18.4 21.7 15 C 21.7 11.5 18.9 8.7 15.5 8.7 Z M 15.5 10.8 C 17.8 10.8 19.6 12.7 19.6 15 C 19.6 17.3 17.8 19.1 15.5 19.1 C 13.2 19.1 11.4 17.3 11.4 15 C 11.4 12.7 13.2 10.8 15.5 10.8 Z"/></svg>