<?xml version="1.0" encoding="UTF-8" standalone="no"?>
<!DOCTYPE svg PUBLIC "-//W3C//DTD SVG 1.1//EN" "http://www.w3.org/Graphics/SVG/1.1/DTD/svg11.dtd">
<svg width="100%" height="100%" viewBox="0 0 2560 2311" version="1.1" xmlns="http://www.w3.org/2000/svg" xmlns:xlink="http://www.w3.org/1999/xlink" xml:space="preserve" xmlns:serif="http://www.serif.com/" style="fill-rule:evenodd;clip-rule:evenodd;stroke-linejoin:round;stroke-miterlimit:2;">
    <g transform="matrix(1,0,0,1,-6977.52,-3089.78)">
        <g transform="matrix(1,0,0,1,-1342.9,-34.7247)">
            <g transform="matrix(0.1,0,0,-0.1,5.42312,10730)">
                <g transform="matrix(10,0,0,-10,-54.2312,107305)">
                    <path d="M8619.64,4292.74C8614.12,4284.52 8601.47,4264.75 8593.62,4251.8C8481.02,4067.4 8402.82,3845.5 8359.92,3589C8338.42,3460.3 8326.62,3335.5 8321.42,3184C8320.92,3167.8 8320.42,3147.9 8320.42,3139.7C8320.42,3131.6 8320.82,3125 8321.22,3125C8322.82,3125 8382.92,3137.5 8438.92,3149.5C8670.72,3199.2 8866.92,3252.5 9025.92,3309C9097.3,3334.41 9164.61,3362.06 9220.92,3388.99C8868,3537.26 8619.84,3886.25 8619.64,4292.74Z" style="fill:white;fill-rule:nonzero;"/>
                </g>
                <g transform="matrix(10,0,0,-10,-54.2312,107305)">
                    <path d="M9979.08,3388.99C10035.4,3362.06 10102.7,3334.41 10174.1,3309C10333.1,3252.5 10529.3,3199.2 10761.1,3149.5C10817.1,3137.5 10877.2,3125 10878.8,3125C10879.2,3125 10879.6,3131.6 10879.6,3139.7C10879.6,3147.9 10879.1,3167.8 10878.6,3184C10873.4,3335.5 10861.6,3460.3 10840.1,3589C10797.2,3845.5 10719,4067.4 10606.4,4251.8C10598.5,4264.75 10585.9,4284.52 10580.4,4292.74C10580.2,3886.26 10332,3537.28 9979.08,3388.99Z" style="fill:white;fill-rule:nonzero;"/>
                </g>
            </g>
            <g transform="matrix(1,0,0,1,297.016,-33.6383)">
                <path d="M9978.82,4813.96C9836.66,5010.76 9610.74,5143.11 9353.52,5158.53C9533.54,5085.08 9654.53,4967.15 9735.21,4886.32C9802.02,4887.3 9868.16,4872.48 9929.87,4842.24C9946.85,4833.9 9963.19,4824.44 9978.82,4813.96ZM9459.54,4781.02C9506.57,4821.94 9563.49,4852.98 9623,4869.76C9633.54,4872.74 9644.11,4875.32 9654.69,4877.49C9553.6,4975.87 9399.17,5105.67 9163.67,5148.42C9067.84,5132.26 8977.53,5099.71 8895.71,5053.73C9110.28,5037.87 9318.88,4940.95 9459.54,4781.02ZM9055.69,4074.58L9057.06,4071.26C9057.06,4071.26 9108.19,3950.75 9302.74,3813.41C9329.76,3829.87 9389.03,3868.57 9444.33,3922.38C9488.09,3964.95 9529.82,4017.01 9549.02,4075.4C9528.23,4085.8 9508.13,4097.95 9488.81,4111.82C9448.47,4140.8 9405.83,4186.43 9378.8,4229.6C9326.53,4312.87 9304.43,4409.33 9315.18,4505.21C9324.92,4591.45 9359.31,4670.62 9415.12,4736.05C9265.88,4908.08 9031.74,5001.85 8801.9,4992.38C8735,4941.91 8675.94,4881.59 8626.88,4813.58C8664.08,4838.52 8705.26,4857.78 8747.76,4869.76C8851.35,4899.05 8958.36,4889.41 9054.63,4842.24C9166.19,4787.48 9250.2,4684.04 9280.13,4564.81C9289.83,4525.98 9293.32,4498.02 9293.43,4458.78C9293.54,4422.28 9290.12,4392.79 9281.84,4358.43C9252.06,4236.14 9173.43,4135.7 9061.79,4077.67C9059.78,4076.63 9057.75,4075.6 9055.69,4074.58ZM8470.51,4293.21C8487.69,3861.52 8834.06,3513.86 9265.25,3494.6C8834.34,3711.14 8674.07,4036.91 8651.24,4087.52C8638.39,4094.92 8625.82,4103.03 8613.57,4111.82C8573.23,4140.8 8530.59,4186.43 8503.56,4229.6C8490.7,4250.07 8479.67,4271.35 8470.51,4293.21ZM9936.17,4077.23C9911.88,3975.65 9849.8,3884.64 9781.7,3811.35C9714.46,3738.99 9641.78,3684.04 9596.84,3653.06C9635.19,3636.83 9676.15,3620.93 9719.86,3605.54C9959.31,3744.32 10123.5,3998.89 10135.4,4292.42C10096.8,4200.15 10027.9,4124.88 9937.03,4077.67L9936.17,4077.23ZM9607.41,4051.38C9584.37,3985.23 9538.04,3925.6 9488.29,3877.2C9442.19,3832.35 9393.53,3797.18 9360.11,3775.19C9408.62,3744.64 9464.48,3713.72 9528.59,3683.53C9555.39,3700.27 9650.1,3762.34 9735.51,3854.26C9786.42,3909.05 9834.34,3974.51 9861.38,4047.54C9834.24,4039.54 9806.53,4034.1 9780.57,4031.91C9760.64,4030.23 9729.64,4029.73 9714.19,4030.75L9714.05,4030.76C9677.19,4033.29 9641.54,4040.2 9607.41,4051.38ZM8743.47,4047.85C8817.21,3923.09 9010.75,3661.24 9405.69,3500.03C9489.41,3510.35 9569.31,3533.1 9643.48,3566.39C9109.99,3769.75 8998.78,4047.24 8998.78,4047.24L8997.24,4050.97C8966.61,4041.08 8934.83,4034.4 8905.33,4031.91C8885.4,4030.23 8854.4,4029.73 8838.95,4030.75L8838.8,4030.76C8806,4033.01 8774.15,4038.73 8743.47,4047.85Z" style="fill:white;"/>
            </g>
            <g transform="matrix(0.1,0,0,-0.1,28.8,10800)">
                <path d="M85961,61279C85916,61058 85898,60730 85919,60505C85992,59726 86344,58928 86997,58058C87373,57558 87812,57076 88407,56507C88463,56454 88507,56410 88504,56410C88492,56410 88333,56495 88248,56546C87825,56802 87182,57312 86341,58059C86229,58158 86135,58238 86132,58236C86126,58230 86212,57979 86270,57836C86528,57192 86854,56684 87289,56250C87453,56086 87556,55997 87747,55854C88210,55506 88785,55240 89445,55068L89635,55019L89415,55024C88860,55037 88273,55138 87630,55330C87523,55362 87423,55393 87408,55399C87392,55405 87380,55408 87380,55406C87380,55405 87404,55371 87433,55331C87516,55220 87621,55109 87728,55019C88248,54584 88991,54356 90080,54299C90322,54286 90946,54292 91195,54310C91272,54315 91373,54322 91420,54324L91505,54330L91375,54295C90992,54193 90128,54032 89602,53963C89529,53954 89470,53943 89470,53940C89470,53936 89518,53917 89578,53897C90654,53533 91644,53576 92540,54025C92997,54254 93449,54603 93847,55032C93989,55186 94140,55360 94140,55371C94140,55374 94110,55382 94073,55389C93720,55453 93070,55609 92630,55735C91540,56047 90543,56469 89690,56980C88314,57803 87245,58889 86506,60213C86346,60501 86148,60915 86025,61220C86004,61272 85983,61319 85979,61324C85975,61328 85967,61308 85961,61279Z" style="fill:white;fill-rule:nonzero;"/>
                <g transform="matrix(-1,0,0,1,191424,0)">
                    <path d="M85961,61279C85916,61058 85898,60730 85919,60505C85992,59726 86344,58928 86997,58058C87373,57558 87812,57076 88407,56507C88463,56454 88507,56410 88504,56410C88492,56410 88333,56495 88248,56546C87825,56802 87182,57312 86341,58059C86229,58158 86135,58238 86132,58236C86126,58230 86212,57979 86270,57836C86528,57192 86854,56684 87289,56250C87453,56086 87556,55997 87747,55854C88210,55506 88785,55240 89445,55068L89635,55019L89415,55024C88860,55037 88273,55138 87630,55330C87523,55362 87423,55393 87408,55399C87392,55405 87380,55408 87380,55406C87380,55405 87404,55371 87433,55331C87516,55220 87621,55109 87728,55019C88248,54584 88991,54356 90080,54299C90322,54286 90946,54292 91195,54310C91272,54315 91373,54322 91420,54324L91505,54330L91375,54295C90992,54193 90128,54032 89602,53963C89529,53954 89470,53943 89470,53940C89470,53936 89518,53917 89578,53897C90654,53533 91644,53576 92540,54025C92997,54254 93449,54603 93847,55032C93989,55186 94140,55360 94140,55371C94140,55374 94110,55382 94073,55389C93720,55453 93070,55609 92630,55735C91540,56047 90543,56469 89690,56980C88314,57803 87245,58889 86506,60213C86346,60501 86148,60915 86025,61220C86004,61272 85983,61319 85979,61324C85975,61328 85967,61308 85961,61279Z" style="fill:white;fill-rule:nonzero;"/>
                </g>
            </g>
            <g transform="matrix(1,0,0,1,3.14615,0)">
                <g transform="matrix(1,0,0,1,293.87,-33.6383)">
                    <path d="M8842.23,4080.64C8769.43,4085.64 8701.93,4109.94 8642.73,4152.44C8607.23,4177.94 8569.73,4218.14 8545.93,4256.14C8499.73,4329.74 8480.13,4414.94 8489.63,4499.64C8499.33,4585.54 8536.73,4663.54 8597.73,4725.14C8642.43,4770.24 8700.33,4804.44 8761.33,4821.64C8852.93,4847.54 8947.53,4839.04 9032.63,4797.34C9131.03,4749.04 9205.23,4657.84 9231.63,4552.64C9240.23,4518.24 9243.33,4493.44 9243.43,4458.64C9243.53,4426.44 9240.53,4400.44 9233.23,4370.14C9206.93,4262.14 9137.43,4173.34 9038.73,4122.04C8997.33,4100.54 8946.23,4085.54 8901.13,4081.74C8883.43,4080.24 8855.93,4079.74 8842.23,4080.64ZM8937.28,4198.9C9098.28,4198.9 9228.99,4329.61 9228.99,4490.6C9228.99,4651.6 9098.28,4782.31 8937.28,4782.31C8776.29,4782.31 8645.58,4651.6 8645.58,4490.6C8645.58,4329.61 8776.29,4198.9 8937.28,4198.9Z" style="fill:white;fill-rule:nonzero;"/>
                </g>
                <g transform="matrix(1,0,0,1,293.87,-33.6383)">
                    <path d="M9717.47,4080.64C9644.67,4085.64 9577.17,4109.94 9517.97,4152.44C9482.47,4177.94 9444.97,4218.14 9421.17,4256.14C9374.97,4329.74 9355.37,4414.94 9364.87,4499.64C9374.57,4585.54 9411.97,4663.54 9472.97,4725.14C9517.67,4770.24 9575.57,4804.44 9636.57,4821.64C9728.17,4847.54 9822.77,4839.04 9907.87,4797.34C10006.3,4749.04 10080.5,4657.84 10106.9,4552.64C10115.5,4518.24 10118.6,4493.44 10118.7,4458.64C10118.8,4426.44 10115.8,4400.44 10108.5,4370.14C10082.2,4262.14 10012.7,4173.34 9913.97,4122.04C9872.57,4100.54 9821.47,4085.54 9776.37,4081.74C9758.67,4080.24 9731.17,4079.74 9717.47,4080.64ZM9668.68,4198.9C9829.68,4198.9 9960.39,4329.61 9960.39,4490.6C9960.39,4651.6 9829.68,4782.31 9668.68,4782.31C9507.69,4782.31 9376.98,4651.6 9376.98,4490.6C9376.98,4329.61 9507.69,4198.9 9668.68,4198.9Z" style="fill:white;fill-rule:nonzero;"/>
                </g>
                <g transform="matrix(1,0,0,1,85.6047,-3.2145e-11)">
                    <circle cx="8972.57" cy="4340.4" r="128.567" style="fill:white;"/>
                </g>
                <g transform="matrix(1,0,0,1,832.028,-3.2145e-11)">
                    <circle cx="8972.57" cy="4340.4" r="128.567" style="fill:white;"/>
                </g>
            </g>
        </g>
    </g>
</svg>
