<?xml version="1.0" encoding="UTF-8" standalone="no"?>
<!DOCTYPE svg PUBLIC "-//W3C//DTD SVG 1.1//EN" "http://www.w3.org/Graphics/SVG/1.1/DTD/svg11.dtd">
<svg width="100%" height="100%" viewBox="0 0 11424 1408" version="1.1" xmlns="http://www.w3.org/2000/svg" xmlns:xlink="http://www.w3.org/1999/xlink" xml:space="preserve" xmlns:serif="http://www.serif.com/" style="fill-rule:evenodd;clip-rule:evenodd;stroke-linejoin:round;stroke-miterlimit:2;">
    <g transform="matrix(1,0,0,1,-3888.06,-6223.3)">
        <g transform="matrix(0.1,0,0,-0.1,-0.535619,10800)">
            <path d="M83899,45751C83716,45711 83643,45671 83145,45336C81706,44367 80639,43409 79898,42422C79260,41574 78874,40706 78745,39835C78685,39427 78685,38917 78745,38520C78901,37487 79392,36511 80247,35531C80405,35350 80783,34965 80990,34775C81543,34266 82173,33779 82922,33284L83168,33120L83172,32813C83176,32512 83177,32503 83203,32417C83239,32300 83277,32218 83337,32129C83678,31624 84390,31543 84832,31959C84881,32005 84941,32071 84966,32105C85022,32185 85092,32332 85122,32435L85144,32515L85145,33635C85145,34251 85143,35471 85139,36345C85134,37773 85132,37942 85117,38001C85065,38214 84993,38346 84852,38492C84334,39027 83438,38821 83201,38113C83146,37951 83147,37963 83154,36708C83158,36071 83159,35550 83156,35550C83153,35550 83084,35602 83003,35667C82104,36375 81464,37070 81087,37748C80875,38129 80752,38486 80699,38870C80682,38995 80682,39358 80699,39480C80780,40064 81031,40624 81481,41227C82124,42087 83190,43009 84577,43904C84894,44109 85052,44347 85091,44681C85124,44972 85010,45283 84793,45491C84695,45584 84644,45620 84525,45676C84385,45743 84301,45762 84130,45766C84015,45769 83967,45766 83899,45751Z" style="fill:white;fill-rule:nonzero;"/>
            <path d="M51715,45749C51373,45700 51065,45475 50929,45175C50885,45078 47094,32938 47080,32848C47061,32728 47072,32536 47104,32427C47190,32138 47362,31933 47625,31805C47786,31726 47880,31705 48065,31706C48184,31707 48231,31711 48292,31728C48473,31777 48608,31851 48733,31970C48841,32072 48896,32148 48954,32271C48984,32336 49181,32954 49590,34265C49916,35310 50184,36166 50185,36167C50186,36169 50237,36143 50299,36110C50645,35924 50993,35805 51380,35740C51539,35713 51926,35702 52109,35719C52557,35760 53013,35909 53448,36155C53492,36180 53512,36186 53515,36178C53518,36171 53788,35308 54115,34260C54518,32970 54723,32328 54750,32271C54806,32155 54862,32079 54967,31980C55092,31861 55227,31787 55408,31738C55469,31721 55516,31717 55635,31716C55820,31715 55914,31736 56075,31815C56338,31943 56510,32148 56596,32437C56628,32546 56639,32738 56620,32858C56606,32948 52815,45088 52771,45185C52663,45423 52439,45623 52183,45709C52047,45755 51864,45770 51715,45749ZM52375,39827C52844,38325 52886,38187 52871,38172C52830,38131 52662,38004 52569,37944C52291,37763 52032,37681 51785,37694C51591,37703 51409,37763 51186,37888C51070,37954 50823,38130 50814,38154C50810,38165 51833,41459 51848,41485C51855,41496 51778,41737 52375,39827Z" style="fill:white;fill-rule:nonzero;"/>
            <path d="M88043,45745C87640,45672 87332,45371 87244,44965C87198,44752 87168,42078 87199,40960C87249,39151 87361,37771 87556,36580C87907,34437 88498,33064 89392,32315C90083,31737 90989,31552 91819,31822C92802,32141 93535,33010 94028,34440C94506,35826 94780,37704 94880,40280C94905,40922 94913,41439 94913,42355C94913,43637 94887,44820 94856,44965C94728,45559 94131,45899 93560,45705C93242,45597 93004,45333 92918,44993C92892,44892 92891,44771 92910,44125C92938,43176 92933,41324 92900,40440C92830,38583 92669,37119 92411,36000C92111,34702 91676,33869 91217,33715C91111,33680 90989,33680 90883,33715C90463,33856 90051,34586 89765,35695C89458,36881 89277,38405 89200,40440C89167,41324 89162,43176 89190,44125C89209,44771 89208,44892 89182,44993C89082,45389 88786,45669 88387,45745C88292,45763 88142,45763 88043,45745Z" style="fill:white;fill-rule:nonzero;"/>
            <path d="M130195,45749C129853,45700 129545,45475 129409,45175C129365,45078 125574,32938 125560,32848C125541,32728 125552,32536 125584,32427C125670,32138 125842,31933 126105,31805C126266,31726 126360,31705 126545,31706C126664,31707 126711,31711 126772,31728C126953,31777 127088,31851 127213,31970C127321,32072 127376,32148 127434,32271C127464,32336 127661,32954 128070,34265C128396,35310 128664,36166 128665,36167C128666,36169 128717,36143 128779,36110C129125,35924 129473,35805 129860,35740C130019,35713 130406,35702 130589,35719C131037,35760 131493,35909 131928,36155C131972,36180 131992,36186 131995,36178C131998,36171 132268,35308 132595,34260C132998,32970 133203,32328 133230,32271C133286,32155 133342,32079 133447,31980C133572,31861 133707,31787 133888,31738C133949,31721 133996,31717 134115,31716C134300,31715 134394,31736 134555,31815C134818,31943 134990,32148 135076,32437C135108,32546 135119,32738 135100,32858C135086,32948 131295,45088 131251,45185C131143,45423 130919,45623 130663,45709C130527,45755 130344,45770 130195,45749ZM130855,39827C131324,38325 131366,38187 131351,38172C131310,38131 131142,38004 131049,37944C130771,37763 130512,37681 130265,37694C130071,37703 129889,37763 129666,37888C129550,37954 129303,38130 129294,38154C129290,38165 130313,41459 130328,41485C130335,41496 130258,41737 130855,39827Z" style="fill:white;fill-rule:nonzero;"/>
            <path d="M99865,45739C99523,45690 99215,45465 99079,45165C99035,45068 95244,32928 95230,32838C95211,32718 95222,32526 95254,32417C95340,32128 95512,31923 95775,31795C95936,31716 96030,31695 96215,31696C96334,31697 96381,31701 96442,31718C96623,31767 96758,31841 96883,31960C96991,32062 97046,32138 97104,32261C97134,32326 97331,32944 97740,34255C98066,35300 98334,36156 98335,36157C98336,36159 98387,36133 98449,36100C98795,35914 99143,35795 99530,35730C99689,35703 100076,35692 100259,35709C100707,35750 101163,35899 101598,36145C101642,36170 101662,36176 101665,36168C101668,36161 101938,35298 102265,34250C102668,32960 102873,32318 102900,32261C102956,32145 103012,32069 103117,31970C103242,31851 103377,31777 103558,31728C103619,31711 103666,31707 103785,31706C103970,31705 104064,31726 104225,31805C104488,31933 104660,32138 104746,32427C104778,32536 104789,32728 104770,32848C104756,32938 100965,45078 100921,45175C100813,45413 100589,45613 100333,45699C100197,45745 100014,45760 99865,45739ZM100525,39817C100994,38315 101036,38177 101021,38162C100980,38121 100812,37994 100719,37934C100441,37753 100182,37671 99935,37684C99741,37693 99559,37753 99336,37878C99220,37944 98973,38120 98964,38144C98960,38155 99983,41449 99998,41475C100005,41486 99928,41727 100525,39817Z" style="fill:white;fill-rule:nonzero;"/>
            <path d="M152030,45709C151989,45705 151818,45667 151650,45625C149024,44968 147371,44178 146545,43185C145785,42271 145694,41181 146290,40113C146701,39377 147433,38647 148577,37832C149163,37415 149690,36929 149953,36562C150087,36376 150181,36193 150215,36053C150227,36002 150231,35954 150228,35888C150225,35801 150221,35788 150178,35700C149939,35212 149021,34668 147645,34200C147150,34032 146692,33899 146008,33725C145711,33649 145625,33624 145554,33589C144944,33291 144804,32481 145281,32002C145450,31832 145653,31735 145895,31710C146031,31696 146136,31711 146472,31796C149096,32452 150749,33242 151575,34235C152335,35149 152426,36239 151830,37307C151419,38043 150687,38773 149543,39588C148957,40005 148430,40491 148167,40858C148033,41044 147939,41227 147905,41367C147893,41418 147889,41466 147892,41532C147895,41619 147899,41632 147942,41720C148181,42208 149099,42752 150475,43220C150970,43388 151428,43521 152112,43695C152409,43771 152495,43796 152566,43831C153176,44129 153316,44939 152839,45418C152713,45545 152556,45637 152395,45680C152324,45698 152159,45722 152120,45718C152112,45718 152071,45714 152030,45709Z" style="fill:white;fill-rule:nonzero;"/>
            <path d="M39697,45695C39388,45636 39118,45435 38985,45165C38961,45116 38928,45035 38913,44985C38888,44902 38886,44882 38886,44720C38886,44573 38890,44533 38907,44469C38919,44428 39079,44043 39263,43614C39447,43186 39889,42158 40245,41330C40601,40502 41112,39313 41381,38687C41650,38061 41876,37539 41882,37527C41892,37510 41895,36951 41896,35050C41898,32344 41893,32554 41960,32368C42062,32085 42326,31842 42619,31761C42846,31698 43096,31717 43307,31815C43535,31920 43737,32138 43820,32368C43887,32554 43882,32344 43884,35050C43885,36951 43888,37510 43898,37527C43904,37539 44130,38061 44399,38687C44668,39313 45179,40502 45535,41330C45891,42158 46333,43186 46517,43614C46701,44043 46861,44428 46873,44469C46890,44533 46894,44573 46894,44720C46894,44882 46892,44902 46867,44985C46781,45268 46604,45479 46345,45606C46186,45684 46092,45705 45905,45704C45786,45703 45739,45698 45678,45682C45497,45633 45362,45559 45237,45440C45130,45339 45074,45263 45016,45139C44976,45054 44283,43445 43267,41078C43062,40601 42893,40210 42890,40210C42887,40210 42718,40601 42513,41078C41497,43445 40804,45054 40764,45139C40706,45263 40650,45339 40543,45440C40417,45560 40279,45635 40102,45681C39998,45708 39802,45715 39697,45695Z" style="fill:white;fill-rule:nonzero;"/>
            <path d="M115081,45699C114851,45671 114647,45568 114482,45396C114350,45258 114266,45098 114225,44904C114209,44831 114208,44602 114214,41840C114217,40198 114222,38682 114225,38470C114228,38258 114232,36872 114235,35390C114239,33599 114244,32663 114251,32600C114292,32236 114529,31928 114877,31789C115093,31702 115360,31697 115583,31777C115668,31807 115764,31857 116074,32035C118392,33365 119882,34713 120634,36161C120922,36717 121087,37251 121162,37875C121182,38048 121180,38608 121157,38790C121053,39631 120770,40367 120242,41164C119474,42327 118184,43508 116440,44648C116311,44732 116200,44807 116194,44813C116188,44820 116178,44857 116172,44896C116147,45053 116054,45243 115941,45371C115733,45607 115390,45737 115081,45699ZM116415,42240C117135,41696 117749,41128 118191,40599C119070,39548 119370,38574 119101,37642C118971,37191 118707,36723 118321,36260C118185,36096 118140,36048 117931,35837C117596,35498 117274,35220 116845,34899C116587,34706 116231,34455 116225,34462C116223,34465 116218,35728 116203,40340L116197,42405L116231,42379C116250,42365 116333,42303 116415,42240Z" style="fill:white;fill-rule:nonzero;"/>
            <path d="M136567,45694C136166,45622 135854,45318 135768,44915C135750,44827 135749,44765 135755,42295C135758,40904 135762,39529 135765,39240C135768,38951 135772,37419 135775,35835C135778,34251 135783,32874 135786,32775C135789,32675 135798,32562 135806,32521C135844,32336 135930,32172 136059,32037C136186,31905 136326,31819 136505,31764C136588,31738 136608,31736 136770,31736C136975,31735 137053,31751 137207,31825C137477,31956 137667,32191 137743,32487L137765,32575L137761,34975C137759,36295 137756,37413 137755,37460C137752,37520 137748,40553 137750,40710C137750,40718 137827,40579 137921,40400C138015,40221 138187,39893 138305,39670C139142,38077 139464,37465 139685,37045C140176,36111 140654,35202 141006,34533C141202,34160 141434,33719 141521,33553L141680,33252L141680,32953C141680,32629 141691,32519 141733,32395C141833,32103 142047,31883 142331,31779C142448,31736 142543,31720 142676,31720C142939,31720 143168,31812 143356,31992C143533,32162 143630,32356 143660,32605C143668,32666 143670,32860 143666,33215C143663,33501 143658,34860 143655,36235C143652,37610 143648,39149 143645,39655C143642,40161 143638,41518 143635,42670C143631,44008 143625,44794 143619,44844C143579,45155 143381,45435 143097,45585C142714,45787 142246,45717 141939,45411C141719,45190 141631,44934 141644,44553C141647,44477 141652,43124 141655,41545C141658,39967 141663,38422 141666,38113C141670,37803 141670,37550 141667,37550C141662,37550 141616,37636 140915,38970C140691,39396 140416,39918 140305,40130C140194,40342 139942,40821 139745,41195C139548,41569 139274,42091 139135,42355C138768,43053 138207,44121 137907,44690C137764,44962 137625,45218 137597,45257C137481,45427 137261,45589 137053,45659C136907,45708 136720,45722 136567,45694Z" style="fill:white;fill-rule:nonzero;"/>
            <path d="M106180,45685C105983,45645 105813,45554 105669,45411C105545,45287 105470,45158 105413,44975L105385,44885L105385,43585C105385,42130 105401,35977 105405,35915C105406,35893 105408,35165 105409,34297C105410,33300 105414,32683 105421,32620C105468,32158 105804,31803 106263,31730C106368,31713 106551,31722 106655,31750C106745,31774 106894,31841 106967,31891C107036,31938 107165,32065 107215,32135C107302,32258 107366,32418 107390,32575C107400,32637 107401,32944 107396,33930C107384,36368 107386,37503 107401,37512C107436,37532 107818,37673 107840,37674C107862,37675 107926,37570 108537,36535C109268,35297 109409,35058 109833,34340C109987,34079 110206,33708 110320,33515C110434,33323 110654,32949 110810,32685C111167,32079 111159,32091 111255,31995C111441,31808 111658,31713 111925,31703C112030,31699 112073,31702 112150,31718C112531,31797 112823,32074 112921,32449C112950,32558 112957,32740 112936,32858C112902,33055 112975,32925 111320,35725C111206,35918 110986,36291 110830,36555C110674,36819 110490,37132 110420,37250C109967,38015 109670,38522 109670,38528C109670,38532 109735,38573 109813,38619C110442,38991 110921,39392 111243,39818C111614,40307 111786,40877 111725,41415C111606,42467 110746,43366 109048,44216C108621,44430 108171,44629 107655,44833C107496,44896 107358,44950 107349,44953C107340,44956 107320,44997 107302,45047C107183,45378 106900,45619 106552,45686C106462,45703 106268,45703 106180,45685ZM107605,42703C107888,42579 108428,42308 108640,42184C108850,42062 109144,41866 109280,41758C109550,41543 109750,41304 109750,41197C109750,41128 109638,40967 109494,40830C109218,40568 108717,40249 108160,39982C107857,39837 107393,39634 107384,39643C107374,39652 107367,42800 107376,42800C107381,42800 107484,42757 107605,42703Z" style="fill:white;fill-rule:nonzero;"/>
            <path d="M123023,45686C122628,45610 122333,45333 122227,44936C122205,44856 122205,44844 122205,44090C122205,42964 122222,36965 122225,36895C122227,36862 122230,36126 122231,35260C122233,34394 122237,33426 122240,33110L122246,32535L122273,32445C122329,32263 122405,32134 122529,32009C122653,31886 122802,31798 122975,31748C123046,31728 123076,31725 123235,31726C123402,31726 123421,31728 123504,31754C123845,31858 124099,32119 124192,32460L124215,32545L124213,35090C124211,36490 124208,37939 124205,38310C124202,38681 124198,40268 124195,41835C124191,43562 124185,44727 124179,44792C124140,45219 123850,45561 123432,45671C123332,45698 123124,45705 123023,45686Z" style="fill:white;fill-rule:nonzero;"/>
            <path d="M58010,45675C57813,45635 57643,45544 57499,45401C57375,45277 57300,45148 57243,44965L57215,44875L57215,43575C57215,42120 57231,35967 57235,35905C57236,35883 57238,35155 57239,34287C57240,33290 57244,32673 57251,32610C57298,32148 57634,31793 58093,31720C58198,31703 58381,31712 58485,31740C58575,31764 58724,31831 58797,31881C58866,31928 58995,32055 59045,32125C59132,32248 59196,32408 59220,32565C59230,32627 59231,32934 59226,33920C59214,36358 59216,37493 59231,37502C59266,37522 59648,37663 59670,37664C59692,37665 59756,37560 60367,36525C61098,35287 61239,35048 61663,34330C61817,34069 62036,33698 62150,33505C62264,33313 62484,32939 62640,32675C62997,32069 62989,32081 63085,31985C63271,31798 63488,31703 63755,31693C63860,31689 63903,31692 63980,31708C64361,31787 64653,32064 64751,32439C64780,32548 64787,32730 64766,32848C64732,33045 64805,32915 63150,35715C63036,35908 62816,36281 62660,36545C62504,36809 62320,37122 62250,37240C61797,38005 61500,38512 61500,38518C61500,38522 61565,38563 61643,38609C62272,38981 62751,39382 63073,39808C63444,40297 63616,40867 63555,41405C63436,42457 62576,43356 60878,44206C60451,44420 60001,44619 59485,44823C59326,44886 59188,44940 59179,44943C59170,44946 59150,44987 59132,45037C59013,45368 58730,45609 58382,45676C58292,45693 58098,45693 58010,45675ZM59435,42693C59718,42569 60258,42298 60470,42174C60680,42052 60974,41856 61110,41748C61380,41533 61580,41294 61580,41187C61580,41118 61468,40957 61324,40820C61048,40558 60547,40239 59990,39972C59687,39827 59223,39624 59214,39633C59204,39642 59197,42790 59206,42790C59211,42790 59314,42747 59435,42693Z" style="fill:white;fill-rule:nonzero;"/>
            <path d="M66197,45674C65796,45602 65484,45298 65398,44895C65380,44807 65379,44745 65385,42275C65388,40884 65392,39509 65395,39220C65398,38931 65402,37399 65405,35815C65408,34231 65413,32854 65416,32755C65419,32655 65428,32542 65436,32501C65474,32316 65560,32152 65689,32017C65816,31885 65956,31799 66135,31744C66218,31718 66238,31716 66400,31716C66605,31715 66683,31731 66837,31805C67107,31936 67297,32171 67373,32467L67395,32555L67391,34955C67389,36275 67386,37393 67385,37440C67382,37500 67378,40533 67380,40690C67380,40698 67457,40559 67551,40380C67645,40201 67817,39873 67935,39650C68772,38057 69094,37445 69315,37025C69806,36091 70284,35182 70636,34513C70832,34140 71064,33699 71151,33533L71310,33232L71310,32933C71310,32609 71321,32499 71363,32375C71463,32083 71677,31863 71961,31759C72078,31716 72173,31700 72306,31700C72569,31700 72798,31792 72986,31972C73163,32142 73260,32336 73290,32585C73298,32646 73300,32840 73296,33195C73293,33481 73288,34840 73285,36215C73282,37590 73278,39129 73275,39635C73272,40141 73268,41498 73265,42650C73261,43988 73255,44774 73249,44824C73209,45135 73011,45415 72727,45565C72344,45767 71876,45697 71569,45391C71349,45170 71261,44914 71274,44533C71277,44457 71282,43104 71285,41525C71288,39947 71293,38402 71296,38093C71300,37783 71300,37530 71297,37530C71292,37530 71246,37616 70545,38950C70321,39376 70046,39898 69935,40110C69824,40322 69572,40801 69375,41175C69178,41549 68904,42071 68765,42335C68398,43033 67837,44101 67537,44670C67394,44942 67255,45198 67227,45237C67111,45407 66891,45569 66683,45639C66537,45688 66350,45702 66197,45674Z" style="fill:white;fill-rule:nonzero;"/>
        </g>
    </g>
</svg>
